<svg width="334" height="52" viewBox="0 0 334 52" fill="none" xmlns="http://www.w3.org/2000/svg">
<path d="M32.6837 1.17451C33.4406 0.504081 34.5789 0.504081 35.3358 1.17451L59.5062 22.5824C60.8842 23.8029 60.0209 26.0795 58.1801 26.0795H9.83942C7.99864 26.0795 7.13537 23.8029 8.51336 22.5824L32.6837 1.17451Z" fill="#2EA9BC"/>
<rect x="40.9643" y="2.31818" width="7.72727" height="13.9091" rx="2" fill="#2EA9BC"/>
<rect x="12.3734" y="24.7273" width="42.5" height="27.0455" rx="2" fill="#2EA9BC"/>
<path d="M15.3955 38.1711V40.0823H16.7968V41.6055H15.3955V45.4853C15.3955 45.7727 15.4536 45.9787 15.5697 46.1032C15.6859 46.2277 15.9081 46.29 16.2363 46.29C16.4787 46.29 16.6933 46.2732 16.8801 46.2397V47.8132C16.4509 47.9377 16.009 48 15.5546 48C14.0195 48 13.2368 47.2648 13.2065 45.7943V41.6055H12.0098V40.0823H13.2065V38.1711H15.3955Z" fill="white"/>
<path d="M20.3264 47.8563H18.1299V40.0823H20.3264V47.8563ZM18.0011 38.0705C18.0011 37.7592 18.1097 37.5029 18.3268 37.3018C18.549 37.1006 18.8494 37 19.2282 37C19.6018 37 19.8998 37.1006 20.1219 37.3018C20.3441 37.5029 20.4552 37.7592 20.4552 38.0705C20.4552 38.3867 20.3416 38.6453 20.1144 38.8465C19.8922 39.0477 19.5968 39.1483 19.2282 39.1483C18.8595 39.1483 18.5616 39.0477 18.3344 38.8465C18.1122 38.6453 18.0011 38.3867 18.0011 38.0705Z" fill="white"/>
<path d="M26.5753 45.708C26.5753 45.4542 26.4415 45.2554 26.1739 45.1117C25.9113 44.9632 25.4871 44.8315 24.9014 44.7165C22.9522 44.3285 21.9777 43.543 21.9777 42.3599C21.9777 41.6702 22.2781 41.0954 22.879 40.6355C23.485 40.1709 24.2752 39.9386 25.2498 39.9386C26.29 39.9386 27.1207 40.1709 27.7418 40.6355C28.3679 41.1002 28.681 41.7037 28.681 42.4461H26.492C26.492 42.1491 26.391 41.9049 26.189 41.7133C25.987 41.5169 25.6714 41.4187 25.2422 41.4187C24.8736 41.4187 24.5883 41.4977 24.3863 41.6558C24.1843 41.8138 24.0833 42.015 24.0833 42.2593C24.0833 42.4892 24.197 42.676 24.4242 42.8197C24.6565 42.9586 25.0453 43.0808 25.5906 43.1862C26.136 43.2867 26.5955 43.4017 26.9692 43.531C28.1255 43.9334 28.7037 44.6303 28.7037 45.6218C28.7037 46.3307 28.3831 46.9055 27.7418 47.3462C27.1005 47.7821 26.2723 48 25.2574 48C24.5706 48 23.9596 47.885 23.4244 47.6551C22.8942 47.4204 22.4776 47.1019 22.1746 46.6995C21.8716 46.2924 21.7201 45.8541 21.7201 45.3847H23.7955C23.8157 45.7535 23.9596 46.0361 24.2273 46.2325C24.4949 46.4289 24.8534 46.5271 25.3028 46.5271C25.7219 46.5271 26.0375 46.4529 26.2496 46.3044C26.4668 46.1511 26.5753 45.9523 26.5753 45.708Z" fill="white"/>
<path d="M33.5286 46.3259C33.9326 46.3259 34.2608 46.2206 34.5133 46.0098C34.7658 45.799 34.8971 45.5188 34.9072 45.1692H36.9598C36.9548 45.6961 36.8033 46.1798 36.5053 46.6205C36.2074 47.0564 35.7984 47.3965 35.2783 47.6408C34.7632 47.8803 34.1926 48 33.5665 48C32.395 48 31.4709 47.6479 30.7943 46.9438C30.1176 46.2349 29.7793 45.2578 29.7793 44.0124V43.8759C29.7793 42.6784 30.1151 41.7228 30.7867 41.0091C31.4583 40.2954 32.3798 39.9386 33.5513 39.9386C34.5764 39.9386 35.397 40.2164 36.013 40.772C36.6341 41.3229 36.9497 42.0581 36.9598 42.9778H34.9072C34.8971 42.5754 34.7658 42.2497 34.5133 42.0007C34.2608 41.7468 33.9275 41.6199 33.5135 41.6199C33.0035 41.6199 32.6172 41.7971 32.3546 42.1515C32.0971 42.5012 31.9683 43.0712 31.9683 43.8615V44.0771C31.9683 44.877 32.0971 45.4518 32.3546 45.8014C32.6121 46.1511 33.0035 46.3259 33.5286 46.3259Z" fill="white"/>
<path d="M37.8687 43.8975C37.8687 43.1263 38.0253 42.4389 38.3384 41.8354C38.6514 41.2319 39.1008 40.7649 39.6866 40.4344C40.2774 40.1039 40.9616 39.9386 41.7393 39.9386C42.8451 39.9386 43.7465 40.2595 44.4433 40.9014C45.1452 41.5432 45.5365 42.415 45.6173 43.5167L45.6325 44.0483C45.6325 45.241 45.2815 46.199 44.5796 46.9223C43.8778 47.6408 42.936 48 41.7544 48C40.5728 48 39.6285 47.6408 38.9216 46.9223C38.2197 46.2038 37.8687 45.2266 37.8687 43.9909V43.8975ZM40.0577 44.0483C40.0577 44.786 40.2042 45.3512 40.4971 45.744C40.7899 46.1319 41.209 46.3259 41.7544 46.3259C42.2846 46.3259 42.6987 46.1343 42.9966 45.7511C43.2945 45.3632 43.4435 44.7453 43.4435 43.8975C43.4435 43.1742 43.2945 42.6138 42.9966 42.2162C42.6987 41.8186 42.2796 41.6199 41.7393 41.6199C41.204 41.6199 40.7899 41.8186 40.4971 42.2162C40.2042 42.609 40.0577 43.2197 40.0577 44.0483Z" fill="white"/>
<path d="M48.9955 40.0823L49.0637 40.9804C49.6494 40.2859 50.4347 39.9386 51.4193 39.9386C52.2879 39.9386 52.9342 40.1805 53.3584 40.6643C53.7825 41.1481 53.9997 41.8713 54.0098 42.8341V47.8563H51.8208V42.8844C51.8208 42.4437 51.7198 42.1252 51.5178 41.9288C51.3158 41.7276 50.98 41.627 50.5104 41.627C49.8943 41.627 49.4323 41.8761 49.1243 42.3743V47.8563H46.9353V40.0823H48.9955Z" fill="white"/>
<path d="M81.3652 18.0895V21.2067H83.5332V23.691H81.3652V30.0192C81.3652 30.4879 81.4551 30.8239 81.6348 31.027C81.8145 31.2301 82.1582 31.3317 82.666 31.3317C83.041 31.3317 83.373 31.3043 83.6621 31.2496V33.816C82.998 34.0192 82.3145 34.1207 81.6113 34.1207C79.2363 34.1207 78.0254 32.9215 77.9785 30.5231V23.691H76.127V21.2067H77.9785V18.0895H81.3652ZM88.9941 33.8864H85.5957V21.2067H88.9941V33.8864ZM85.3965 17.9254C85.3965 17.4176 85.5645 16.9996 85.9004 16.6715C86.2441 16.3434 86.709 16.1793 87.2949 16.1793C87.873 16.1793 88.334 16.3434 88.6777 16.6715C89.0215 16.9996 89.1934 17.4176 89.1934 17.9254C89.1934 18.441 89.0176 18.8629 88.666 19.191C88.3223 19.5192 87.8652 19.6832 87.2949 19.6832C86.7246 19.6832 86.2637 19.5192 85.9121 19.191C85.5684 18.8629 85.3965 18.441 85.3965 17.9254ZM98.6621 30.3824C98.6621 29.9684 98.4551 29.6442 98.041 29.4098C97.6348 29.1676 96.9785 28.9528 96.0723 28.7653C93.0566 28.1324 91.5488 26.8512 91.5488 24.9215C91.5488 23.7965 92.0137 22.859 92.9434 22.109C93.8809 21.3512 95.1035 20.9723 96.6113 20.9723C98.2207 20.9723 99.5059 21.3512 100.467 22.109C101.436 22.8668 101.92 23.8512 101.92 25.0621H98.5332C98.5332 24.5778 98.377 24.1793 98.0645 23.8668C97.752 23.5465 97.2637 23.3864 96.5996 23.3864C96.0293 23.3864 95.5879 23.5153 95.2754 23.7731C94.9629 24.0309 94.8066 24.359 94.8066 24.7574C94.8066 25.1324 94.9824 25.4371 95.334 25.6715C95.6934 25.8981 96.2949 26.0973 97.1387 26.2692C97.9824 26.4332 98.6934 26.6207 99.2715 26.8317C101.061 27.4879 101.955 28.6246 101.955 30.2418C101.955 31.3981 101.459 32.3356 100.467 33.0543C99.4746 33.7653 98.1934 34.1207 96.623 34.1207C95.5605 34.1207 94.6152 33.9332 93.7871 33.5582C92.9668 33.1754 92.3223 32.6559 91.8535 31.9996C91.3848 31.3356 91.1504 30.6207 91.1504 29.8551H94.3613C94.3926 30.4567 94.6152 30.9176 95.0293 31.2379C95.4434 31.5582 95.998 31.7184 96.6934 31.7184C97.3418 31.7184 97.8301 31.5973 98.1582 31.3551C98.4941 31.1051 98.6621 30.7809 98.6621 30.3824ZM109.42 31.3903C110.045 31.3903 110.553 31.2184 110.943 30.8746C111.334 30.5309 111.537 30.0739 111.553 29.5035H114.729C114.721 30.3629 114.486 31.152 114.025 31.8707C113.564 32.5817 112.932 33.1364 112.127 33.5348C111.33 33.9254 110.447 34.1207 109.479 34.1207C107.666 34.1207 106.236 33.5465 105.189 32.3981C104.143 31.2418 103.619 29.6481 103.619 27.6168V27.3942C103.619 25.441 104.139 23.8824 105.178 22.7184C106.217 21.5543 107.643 20.9723 109.455 20.9723C111.041 20.9723 112.311 21.4254 113.264 22.3317C114.225 23.2301 114.713 24.4293 114.729 25.9293H111.553C111.537 25.2731 111.334 24.7418 110.943 24.3356C110.553 23.9215 110.037 23.7145 109.396 23.7145C108.607 23.7145 108.01 24.0035 107.604 24.5817C107.205 25.152 107.006 26.0817 107.006 27.3707V27.7223C107.006 29.027 107.205 29.9645 107.604 30.5348C108.002 31.1051 108.607 31.3903 109.42 31.3903ZM116.135 27.4293C116.135 26.1715 116.377 25.0504 116.861 24.066C117.346 23.0817 118.041 22.3199 118.947 21.7809C119.861 21.2418 120.92 20.9723 122.123 20.9723C123.834 20.9723 125.229 21.4957 126.307 22.5426C127.393 23.5895 127.998 25.0114 128.123 26.8082L128.146 27.6754C128.146 29.6207 127.604 31.1832 126.518 32.3629C125.432 33.5348 123.975 34.1207 122.146 34.1207C120.318 34.1207 118.857 33.5348 117.764 32.3629C116.678 31.191 116.135 29.5973 116.135 27.5817V27.4293ZM119.521 27.6754C119.521 28.8785 119.748 29.8004 120.201 30.441C120.654 31.0739 121.303 31.3903 122.146 31.3903C122.967 31.3903 123.607 31.0778 124.068 30.4528C124.529 29.8199 124.76 28.8121 124.76 27.4293C124.76 26.2496 124.529 25.3356 124.068 24.6871C123.607 24.0387 122.959 23.7145 122.123 23.7145C121.295 23.7145 120.654 24.0387 120.201 24.6871C119.748 25.3278 119.521 26.3239 119.521 27.6754ZM133.35 21.2067L133.455 22.6715C134.361 21.5387 135.576 20.9723 137.1 20.9723C138.443 20.9723 139.443 21.3668 140.1 22.1559C140.756 22.9449 141.092 24.1246 141.107 25.6949V33.8864H137.721V25.777C137.721 25.0582 137.564 24.5387 137.252 24.2184C136.939 23.8903 136.42 23.7262 135.693 23.7262C134.74 23.7262 134.025 24.1324 133.549 24.9449V33.8864H130.162V21.2067H133.35ZM152.838 21.2067L152.943 22.6246C153.842 21.5231 155.057 20.9723 156.588 20.9723C158.221 20.9723 159.342 21.6168 159.951 22.9059C160.842 21.6168 162.111 20.9723 163.76 20.9723C165.135 20.9723 166.158 21.3746 166.83 22.1793C167.502 22.9762 167.838 24.1793 167.838 25.7887V33.8864H164.439V25.8004C164.439 25.0817 164.299 24.5582 164.018 24.2301C163.736 23.8942 163.24 23.7262 162.529 23.7262C161.514 23.7262 160.811 24.2106 160.42 25.1793L160.432 33.8864H157.045V25.8121C157.045 25.0778 156.9 24.5465 156.611 24.2184C156.322 23.8903 155.83 23.7262 155.135 23.7262C154.174 23.7262 153.479 24.1246 153.049 24.9215V33.8864H149.662V21.2067H152.838ZM169.924 27.4293C169.924 26.1715 170.166 25.0504 170.65 24.066C171.135 23.0817 171.83 22.3199 172.736 21.7809C173.65 21.2418 174.709 20.9723 175.912 20.9723C177.623 20.9723 179.018 21.4957 180.096 22.5426C181.182 23.5895 181.787 25.0114 181.912 26.8082L181.936 27.6754C181.936 29.6207 181.393 31.1832 180.307 32.3629C179.221 33.5348 177.764 34.1207 175.936 34.1207C174.107 34.1207 172.646 33.5348 171.553 32.3629C170.467 31.191 169.924 29.5973 169.924 27.5817V27.4293ZM173.311 27.6754C173.311 28.8785 173.537 29.8004 173.99 30.441C174.443 31.0739 175.092 31.3903 175.936 31.3903C176.756 31.3903 177.396 31.0778 177.857 30.4528C178.318 29.8199 178.549 28.8121 178.549 27.4293C178.549 26.2496 178.318 25.3356 177.857 24.6871C177.396 24.0387 176.748 23.7145 175.912 23.7145C175.084 23.7145 174.443 24.0387 173.99 24.6871C173.537 25.3278 173.311 26.3239 173.311 27.6754ZM188.58 29.7496L190.936 21.2067H194.475L190.197 33.8864H186.963L182.686 21.2067H186.225L188.58 29.7496ZM199.549 33.8864H196.15V21.2067H199.549V33.8864ZM195.951 17.9254C195.951 17.4176 196.119 16.9996 196.455 16.6715C196.799 16.3434 197.264 16.1793 197.85 16.1793C198.428 16.1793 198.889 16.3434 199.232 16.6715C199.576 16.9996 199.748 17.4176 199.748 17.9254C199.748 18.441 199.572 18.8629 199.221 19.191C198.877 19.5192 198.42 19.6832 197.85 19.6832C197.279 19.6832 196.818 19.5192 196.467 19.191C196.123 18.8629 195.951 18.441 195.951 17.9254ZM205.467 21.2067L205.572 22.6715C206.479 21.5387 207.693 20.9723 209.217 20.9723C210.561 20.9723 211.561 21.3668 212.217 22.1559C212.873 22.9449 213.209 24.1246 213.225 25.6949V33.8864H209.838V25.777C209.838 25.0582 209.682 24.5387 209.369 24.2184C209.057 23.8903 208.537 23.7262 207.811 23.7262C206.857 23.7262 206.143 24.1324 205.666 24.9449V33.8864H202.279V21.2067H205.467ZM215.311 27.4528C215.311 25.5074 215.771 23.941 216.693 22.7535C217.623 21.566 218.873 20.9723 220.443 20.9723C221.834 20.9723 222.916 21.4489 223.689 22.402L223.83 21.2067H226.9V33.4645C226.9 34.5739 226.646 35.5387 226.139 36.359C225.639 37.1793 224.932 37.8043 224.018 38.234C223.104 38.6637 222.033 38.8785 220.807 38.8785C219.877 38.8785 218.971 38.691 218.088 38.316C217.205 37.9489 216.537 37.4723 216.084 36.8864L217.584 34.8239C218.428 35.7692 219.451 36.2418 220.654 36.2418C221.553 36.2418 222.252 35.9996 222.752 35.5153C223.252 35.0387 223.502 34.359 223.502 33.4762V32.7965C222.721 33.6793 221.693 34.1207 220.42 34.1207C218.896 34.1207 217.662 33.527 216.717 32.3395C215.779 31.1442 215.311 29.5621 215.311 27.5934V27.4528ZM218.697 27.6989C218.697 28.8473 218.928 29.7496 219.389 30.4059C219.85 31.0543 220.482 31.3785 221.287 31.3785C222.318 31.3785 223.057 30.9918 223.502 30.2184V24.8864C223.049 24.1129 222.318 23.7262 221.311 23.7262C220.498 23.7262 219.857 24.0582 219.389 24.7223C218.928 25.3864 218.697 26.3785 218.697 27.6989ZM240.764 31.3903C241.389 31.3903 241.896 31.2184 242.287 30.8746C242.678 30.5309 242.881 30.0739 242.896 29.5035H246.072C246.064 30.3629 245.83 31.152 245.369 31.8707C244.908 32.5817 244.275 33.1364 243.471 33.5348C242.674 33.9254 241.791 34.1207 240.822 34.1207C239.01 34.1207 237.58 33.5465 236.533 32.3981C235.486 31.2418 234.963 29.6481 234.963 27.6168V27.3942C234.963 25.441 235.482 23.8824 236.521 22.7184C237.561 21.5543 238.986 20.9723 240.799 20.9723C242.385 20.9723 243.654 21.4254 244.607 22.3317C245.568 23.2301 246.057 24.4293 246.072 25.9293H242.896C242.881 25.2731 242.678 24.7418 242.287 24.3356C241.896 23.9215 241.381 23.7145 240.74 23.7145C239.951 23.7145 239.354 24.0035 238.947 24.5817C238.549 25.152 238.35 26.0817 238.35 27.3707V27.7223C238.35 29.027 238.549 29.9645 238.947 30.5348C239.346 31.1051 239.951 31.3903 240.764 31.3903ZM247.479 27.4293C247.479 26.1715 247.721 25.0504 248.205 24.066C248.689 23.0817 249.385 22.3199 250.291 21.7809C251.205 21.2418 252.264 20.9723 253.467 20.9723C255.178 20.9723 256.572 21.4957 257.65 22.5426C258.736 23.5895 259.342 25.0114 259.467 26.8082L259.49 27.6754C259.49 29.6207 258.947 31.1832 257.861 32.3629C256.775 33.5348 255.318 34.1207 253.49 34.1207C251.662 34.1207 250.201 33.5348 249.107 32.3629C248.021 31.191 247.479 29.5973 247.479 27.5817V27.4293ZM250.865 27.6754C250.865 28.8785 251.092 29.8004 251.545 30.441C251.998 31.0739 252.646 31.3903 253.49 31.3903C254.311 31.3903 254.951 31.0778 255.412 30.4528C255.873 29.8199 256.104 28.8121 256.104 27.4293C256.104 26.2496 255.873 25.3356 255.412 24.6871C254.951 24.0387 254.303 23.7145 253.467 23.7145C252.639 23.7145 251.998 24.0387 251.545 24.6871C251.092 25.3278 250.865 26.3239 250.865 27.6754ZM264.752 21.2067L264.857 22.6246C265.756 21.5231 266.971 20.9723 268.502 20.9723C270.135 20.9723 271.256 21.6168 271.865 22.9059C272.756 21.6168 274.025 20.9723 275.674 20.9723C277.049 20.9723 278.072 21.3746 278.744 22.1793C279.416 22.9762 279.752 24.1793 279.752 25.7887V33.8864H276.354V25.8004C276.354 25.0817 276.213 24.5582 275.932 24.2301C275.65 23.8942 275.154 23.7262 274.443 23.7262C273.428 23.7262 272.725 24.2106 272.334 25.1793L272.346 33.8864H268.959V25.8121C268.959 25.0778 268.814 24.5465 268.525 24.2184C268.236 23.8903 267.744 23.7262 267.049 23.7262C266.088 23.7262 265.393 24.1246 264.963 24.9215V33.8864H261.576V21.2067H264.752ZM293.779 27.6637C293.779 29.6168 293.334 31.1832 292.443 32.3629C291.561 33.5348 290.365 34.1207 288.857 34.1207C287.576 34.1207 286.541 33.6754 285.752 32.7848V38.7614H282.365V21.2067H285.506L285.623 22.4489C286.443 21.4645 287.514 20.9723 288.834 20.9723C290.396 20.9723 291.611 21.5504 292.479 22.7067C293.346 23.8629 293.779 25.4567 293.779 27.4879V27.6637ZM290.393 27.4176C290.393 26.2379 290.182 25.3278 289.76 24.6871C289.346 24.0465 288.74 23.7262 287.943 23.7262C286.881 23.7262 286.15 24.1324 285.752 24.9449V30.1364C286.166 30.9723 286.904 31.3903 287.967 31.3903C289.584 31.3903 290.393 30.066 290.393 27.4176ZM303.236 33.8864C303.08 33.5817 302.967 33.2028 302.896 32.7496C302.076 33.6637 301.01 34.1207 299.697 34.1207C298.455 34.1207 297.424 33.7614 296.604 33.0426C295.791 32.3239 295.385 31.4176 295.385 30.3239C295.385 28.9801 295.881 27.9489 296.873 27.2301C297.873 26.5114 299.314 26.1481 301.197 26.1403H302.756V25.4137C302.756 24.8278 302.604 24.359 302.299 24.0074C302.002 23.6559 301.529 23.4801 300.881 23.4801C300.311 23.4801 299.861 23.6168 299.533 23.8903C299.213 24.1637 299.053 24.5387 299.053 25.0153H295.666C295.666 24.2809 295.893 23.6012 296.346 22.9762C296.799 22.3512 297.439 21.8629 298.268 21.5114C299.096 21.152 300.025 20.9723 301.057 20.9723C302.619 20.9723 303.857 21.3668 304.771 22.1559C305.693 22.9371 306.154 24.0387 306.154 25.4606V30.9567C306.162 32.1598 306.33 33.0699 306.658 33.6871V33.8864H303.236ZM300.436 31.5309C300.936 31.5309 301.396 31.4215 301.818 31.2028C302.24 30.9762 302.553 30.6754 302.756 30.3004V28.1207H301.49C299.795 28.1207 298.893 28.7067 298.783 29.8785L298.771 30.0778C298.771 30.4996 298.92 30.8473 299.217 31.1207C299.514 31.3942 299.92 31.5309 300.436 31.5309ZM311.873 21.2067L311.979 22.6715C312.885 21.5387 314.1 20.9723 315.623 20.9723C316.967 20.9723 317.967 21.3668 318.623 22.1559C319.279 22.9449 319.615 24.1246 319.631 25.6949V33.8864H316.244V25.777C316.244 25.0582 316.088 24.5387 315.775 24.2184C315.463 23.8903 314.943 23.7262 314.217 23.7262C313.264 23.7262 312.549 24.1324 312.072 24.9449V33.8864H308.686V21.2067H311.873ZM326.943 29.0934L329.287 21.2067H332.92L327.822 35.8551L327.541 36.5231C326.783 38.1793 325.533 39.0074 323.791 39.0074C323.299 39.0074 322.799 38.9332 322.291 38.7848V36.2184L322.807 36.2301C323.447 36.2301 323.924 36.1324 324.236 35.9371C324.557 35.7418 324.807 35.4176 324.986 34.9645L325.385 33.9215L320.943 21.2067H324.588L326.943 29.0934Z" fill="#2EA9BC"/>
</svg>
