<svg width="514" height="86" viewBox="0 0 514 86" fill="none" xmlns="http://www.w3.org/2000/svg">
<path d="M10.7109 12.4062V18.6406H15.0469V23.6094H10.7109V36.2656C10.7109 37.2031 10.8906 37.875 11.25 38.2812C11.6094 38.6875 12.2969 38.8906 13.3125 38.8906C14.0625 38.8906 14.7266 38.8359 15.3047 38.7266V43.8594C13.9766 44.2656 12.6094 44.4688 11.2031 44.4688C6.45312 44.4688 4.03125 42.0703 3.9375 37.2734V23.6094H0.234375V18.6406H3.9375V12.4062H10.7109ZM25.9688 44H19.1719V18.6406H25.9688V44ZM18.7734 12.0781C18.7734 11.0625 19.1094 10.2266 19.7812 9.57031C20.4688 8.91406 21.3984 8.58594 22.5703 8.58594C23.7266 8.58594 24.6484 8.91406 25.3359 9.57031C26.0234 10.2266 26.3672 11.0625 26.3672 12.0781C26.3672 13.1094 26.0156 13.9531 25.3125 14.6094C24.625 15.2656 23.7109 15.5938 22.5703 15.5938C21.4297 15.5938 20.5078 15.2656 19.8047 14.6094C19.1172 13.9531 18.7734 13.1094 18.7734 12.0781ZM45.3047 36.9922C45.3047 36.1641 44.8906 35.5156 44.0625 35.0469C43.25 34.5625 41.9375 34.1328 40.125 33.7578C34.0938 32.4922 31.0781 29.9297 31.0781 26.0703C31.0781 23.8203 32.0078 21.9453 33.8672 20.4453C35.7422 18.9297 38.1875 18.1719 41.2031 18.1719C44.4219 18.1719 46.9922 18.9297 48.9141 20.4453C50.8516 21.9609 51.8203 23.9297 51.8203 26.3516H45.0469C45.0469 25.3828 44.7344 24.5859 44.1094 23.9609C43.4844 23.3203 42.5078 23 41.1797 23C40.0391 23 39.1562 23.2578 38.5312 23.7734C37.9062 24.2891 37.5938 24.9453 37.5938 25.7422C37.5938 26.4922 37.9453 27.1016 38.6484 27.5703C39.3672 28.0234 40.5703 28.4219 42.2578 28.7656C43.9453 29.0938 45.3672 29.4688 46.5234 29.8906C50.1016 31.2031 51.8906 33.4766 51.8906 36.7109C51.8906 39.0234 50.8984 40.8984 48.9141 42.3359C46.9297 43.7578 44.3672 44.4688 41.2266 44.4688C39.1016 44.4688 37.2109 44.0938 35.5547 43.3438C33.9141 42.5781 32.625 41.5391 31.6875 40.2266C30.75 38.8984 30.2812 37.4688 30.2812 35.9375H36.7031C36.7656 37.1406 37.2109 38.0625 38.0391 38.7031C38.8672 39.3438 39.9766 39.6641 41.3672 39.6641C42.6641 39.6641 43.6406 39.4219 44.2969 38.9375C44.9688 38.4375 45.3047 37.7891 45.3047 36.9922ZM66.8203 39.0078C68.0703 39.0078 69.0859 38.6641 69.8672 37.9766C70.6484 37.2891 71.0547 36.375 71.0859 35.2344H77.4375C77.4219 36.9531 76.9531 38.5312 76.0312 39.9688C75.1094 41.3906 73.8438 42.5 72.2344 43.2969C70.6406 44.0781 68.875 44.4688 66.9375 44.4688C63.3125 44.4688 60.4531 43.3203 58.3594 41.0234C56.2656 38.7109 55.2188 35.5234 55.2188 31.4609V31.0156C55.2188 27.1094 56.2578 23.9922 58.3359 21.6641C60.4141 19.3359 63.2656 18.1719 66.8906 18.1719C70.0625 18.1719 72.6016 19.0781 74.5078 20.8906C76.4297 22.6875 77.4062 25.0859 77.4375 28.0859H71.0859C71.0547 26.7734 70.6484 25.7109 69.8672 24.8984C69.0859 24.0703 68.0547 23.6562 66.7734 23.6562C65.1953 23.6562 64 24.2344 63.1875 25.3906C62.3906 26.5312 61.9922 28.3906 61.9922 30.9688V31.6719C61.9922 34.2812 62.3906 36.1562 63.1875 37.2969C63.9844 38.4375 65.1953 39.0078 66.8203 39.0078ZM80.25 31.0859C80.25 28.5703 80.7344 26.3281 81.7031 24.3594C82.6719 22.3906 84.0625 20.8672 85.875 19.7891C87.7031 18.7109 89.8203 18.1719 92.2266 18.1719C95.6484 18.1719 98.4375 19.2188 100.594 21.3125C102.766 23.4062 103.977 26.25 104.227 29.8438L104.273 31.5781C104.273 35.4688 103.188 38.5938 101.016 40.9531C98.8438 43.2969 95.9297 44.4688 92.2734 44.4688C88.6172 44.4688 85.6953 43.2969 83.5078 40.9531C81.3359 38.6094 80.25 35.4219 80.25 31.3906V31.0859ZM87.0234 31.5781C87.0234 33.9844 87.4766 35.8281 88.3828 37.1094C89.2891 38.375 90.5859 39.0078 92.2734 39.0078C93.9141 39.0078 95.1953 38.3828 96.1172 37.1328C97.0391 35.8672 97.5 33.8516 97.5 31.0859C97.5 28.7266 97.0391 26.8984 96.1172 25.6016C95.1953 24.3047 93.8984 23.6562 92.2266 23.6562C90.5703 23.6562 89.2891 24.3047 88.3828 25.6016C87.4766 26.8828 87.0234 28.875 87.0234 31.5781ZM114.68 18.6406L114.891 21.5703C116.703 19.3047 119.133 18.1719 122.18 18.1719C124.867 18.1719 126.867 18.9609 128.18 20.5391C129.492 22.1172 130.164 24.4766 130.195 27.6172V44H123.422V27.7812C123.422 26.3438 123.109 25.3047 122.484 24.6641C121.859 24.0078 120.82 23.6797 119.367 23.6797C117.461 23.6797 116.031 24.4922 115.078 26.1172V44H108.305V18.6406H114.68ZM153.656 18.6406L153.867 21.4766C155.664 19.2734 158.094 18.1719 161.156 18.1719C164.422 18.1719 166.664 19.4609 167.883 22.0391C169.664 19.4609 172.203 18.1719 175.5 18.1719C178.25 18.1719 180.297 18.9766 181.641 20.5859C182.984 22.1797 183.656 24.5859 183.656 27.8047V44H176.859V27.8281C176.859 26.3906 176.578 25.3438 176.016 24.6875C175.453 24.0156 174.461 23.6797 173.039 23.6797C171.008 23.6797 169.602 24.6484 168.82 26.5859L168.844 44H162.07V27.8516C162.07 26.3828 161.781 25.3203 161.203 24.6641C160.625 24.0078 159.641 23.6797 158.25 23.6797C156.328 23.6797 154.938 24.4766 154.078 26.0703V44H147.305V18.6406H153.656ZM187.828 31.0859C187.828 28.5703 188.312 26.3281 189.281 24.3594C190.25 22.3906 191.641 20.8672 193.453 19.7891C195.281 18.7109 197.398 18.1719 199.805 18.1719C203.227 18.1719 206.016 19.2188 208.172 21.3125C210.344 23.4062 211.555 26.25 211.805 29.8438L211.852 31.5781C211.852 35.4688 210.766 38.5938 208.594 40.9531C206.422 43.2969 203.508 44.4688 199.852 44.4688C196.195 44.4688 193.273 43.2969 191.086 40.9531C188.914 38.6094 187.828 35.4219 187.828 31.3906V31.0859ZM194.602 31.5781C194.602 33.9844 195.055 35.8281 195.961 37.1094C196.867 38.375 198.164 39.0078 199.852 39.0078C201.492 39.0078 202.773 38.3828 203.695 37.1328C204.617 35.8672 205.078 33.8516 205.078 31.0859C205.078 28.7266 204.617 26.8984 203.695 25.6016C202.773 24.3047 201.477 23.6562 199.805 23.6562C198.148 23.6562 196.867 24.3047 195.961 25.6016C195.055 26.8828 194.602 28.875 194.602 31.5781ZM225.141 35.7266L229.852 18.6406H236.93L228.375 44H221.906L213.352 18.6406H220.43L225.141 35.7266ZM247.078 44H240.281V18.6406H247.078V44ZM239.883 12.0781C239.883 11.0625 240.219 10.2266 240.891 9.57031C241.578 8.91406 242.508 8.58594 243.68 8.58594C244.836 8.58594 245.758 8.91406 246.445 9.57031C247.133 10.2266 247.477 11.0625 247.477 12.0781C247.477 13.1094 247.125 13.9531 246.422 14.6094C245.734 15.2656 244.82 15.5938 243.68 15.5938C242.539 15.5938 241.617 15.2656 240.914 14.6094C240.227 13.9531 239.883 13.1094 239.883 12.0781ZM258.914 18.6406L259.125 21.5703C260.938 19.3047 263.367 18.1719 266.414 18.1719C269.102 18.1719 271.102 18.9609 272.414 20.5391C273.727 22.1172 274.398 24.4766 274.43 27.6172V44H267.656V27.7812C267.656 26.3438 267.344 25.3047 266.719 24.6641C266.094 24.0078 265.055 23.6797 263.602 23.6797C261.695 23.6797 260.266 24.4922 259.312 26.1172V44H252.539V18.6406H258.914ZM278.602 31.1328C278.602 27.2422 279.523 24.1094 281.367 21.7344C283.227 19.3594 285.727 18.1719 288.867 18.1719C291.648 18.1719 293.812 19.125 295.359 21.0312L295.641 18.6406H301.781V43.1562C301.781 45.375 301.273 47.3047 300.258 48.9453C299.258 50.5859 297.844 51.8359 296.016 52.6953C294.188 53.5547 292.047 53.9844 289.594 53.9844C287.734 53.9844 285.922 53.6094 284.156 52.8594C282.391 52.125 281.055 51.1719 280.148 50L283.148 45.875C284.836 47.7656 286.883 48.7109 289.289 48.7109C291.086 48.7109 292.484 48.2266 293.484 47.2578C294.484 46.3047 294.984 44.9453 294.984 43.1797V41.8203C293.422 43.5859 291.367 44.4688 288.82 44.4688C285.773 44.4688 283.305 43.2812 281.414 40.9062C279.539 38.5156 278.602 35.3516 278.602 31.4141V31.1328ZM285.375 31.625C285.375 33.9219 285.836 35.7266 286.758 37.0391C287.68 38.3359 288.945 38.9844 290.555 38.9844C292.617 38.9844 294.094 38.2109 294.984 36.6641V26C294.078 24.4531 292.617 23.6797 290.602 23.6797C288.977 23.6797 287.695 24.3438 286.758 25.6719C285.836 27 285.375 28.9844 285.375 31.625ZM329.508 39.0078C330.758 39.0078 331.773 38.6641 332.555 37.9766C333.336 37.2891 333.742 36.375 333.773 35.2344H340.125C340.109 36.9531 339.641 38.5312 338.719 39.9688C337.797 41.3906 336.531 42.5 334.922 43.2969C333.328 44.0781 331.562 44.4688 329.625 44.4688C326 44.4688 323.141 43.3203 321.047 41.0234C318.953 38.7109 317.906 35.5234 317.906 31.4609V31.0156C317.906 27.1094 318.945 23.9922 321.023 21.6641C323.102 19.3359 325.953 18.1719 329.578 18.1719C332.75 18.1719 335.289 19.0781 337.195 20.8906C339.117 22.6875 340.094 25.0859 340.125 28.0859H333.773C333.742 26.7734 333.336 25.7109 332.555 24.8984C331.773 24.0703 330.742 23.6562 329.461 23.6562C327.883 23.6562 326.688 24.2344 325.875 25.3906C325.078 26.5312 324.68 28.3906 324.68 30.9688V31.6719C324.68 34.2812 325.078 36.1562 325.875 37.2969C326.672 38.4375 327.883 39.0078 329.508 39.0078ZM342.938 31.0859C342.938 28.5703 343.422 26.3281 344.391 24.3594C345.359 22.3906 346.75 20.8672 348.562 19.7891C350.391 18.7109 352.508 18.1719 354.914 18.1719C358.336 18.1719 361.125 19.2188 363.281 21.3125C365.453 23.4062 366.664 26.25 366.914 29.8438L366.961 31.5781C366.961 35.4688 365.875 38.5938 363.703 40.9531C361.531 43.2969 358.617 44.4688 354.961 44.4688C351.305 44.4688 348.383 43.2969 346.195 40.9531C344.023 38.6094 342.938 35.4219 342.938 31.3906V31.0859ZM349.711 31.5781C349.711 33.9844 350.164 35.8281 351.07 37.1094C351.977 38.375 353.273 39.0078 354.961 39.0078C356.602 39.0078 357.883 38.3828 358.805 37.1328C359.727 35.8672 360.188 33.8516 360.188 31.0859C360.188 28.7266 359.727 26.8984 358.805 25.6016C357.883 24.3047 356.586 23.6562 354.914 23.6562C353.258 23.6562 351.977 24.3047 351.07 25.6016C350.164 26.8828 349.711 28.875 349.711 31.5781ZM377.484 18.6406L377.695 21.4766C379.492 19.2734 381.922 18.1719 384.984 18.1719C388.25 18.1719 390.492 19.4609 391.711 22.0391C393.492 19.4609 396.031 18.1719 399.328 18.1719C402.078 18.1719 404.125 18.9766 405.469 20.5859C406.812 22.1797 407.484 24.5859 407.484 27.8047V44H400.688V27.8281C400.688 26.3906 400.406 25.3438 399.844 24.6875C399.281 24.0156 398.289 23.6797 396.867 23.6797C394.836 23.6797 393.43 24.6484 392.648 26.5859L392.672 44H385.898V27.8516C385.898 26.3828 385.609 25.3203 385.031 24.6641C384.453 24.0078 383.469 23.6797 382.078 23.6797C380.156 23.6797 378.766 24.4766 377.906 26.0703V44H371.133V18.6406H377.484ZM435.539 31.5547C435.539 35.4609 434.648 38.5938 432.867 40.9531C431.102 43.2969 428.711 44.4688 425.695 44.4688C423.133 44.4688 421.062 43.5781 419.484 41.7969V53.75H412.711V18.6406H418.992L419.227 21.125C420.867 19.1562 423.008 18.1719 425.648 18.1719C428.773 18.1719 431.203 19.3281 432.938 21.6406C434.672 23.9531 435.539 27.1406 435.539 31.2031V31.5547ZM428.766 31.0625C428.766 28.7031 428.344 26.8828 427.5 25.6016C426.672 24.3203 425.461 23.6797 423.867 23.6797C421.742 23.6797 420.281 24.4922 419.484 26.1172V36.5C420.312 38.1719 421.789 39.0078 423.914 39.0078C427.148 39.0078 428.766 36.3594 428.766 31.0625ZM454.453 44C454.141 43.3906 453.914 42.6328 453.773 41.7266C452.133 43.5547 450 44.4688 447.375 44.4688C444.891 44.4688 442.828 43.75 441.188 42.3125C439.562 40.875 438.75 39.0625 438.75 36.875C438.75 34.1875 439.742 32.125 441.727 30.6875C443.727 29.25 446.609 28.5234 450.375 28.5078H453.492V27.0547C453.492 25.8828 453.188 24.9453 452.578 24.2422C451.984 23.5391 451.039 23.1875 449.742 23.1875C448.602 23.1875 447.703 23.4609 447.047 24.0078C446.406 24.5547 446.086 25.3047 446.086 26.2578H439.312C439.312 24.7891 439.766 23.4297 440.672 22.1797C441.578 20.9297 442.859 19.9531 444.516 19.25C446.172 18.5312 448.031 18.1719 450.094 18.1719C453.219 18.1719 455.695 18.9609 457.523 20.5391C459.367 22.1016 460.289 24.3047 460.289 27.1484V38.1406C460.305 40.5469 460.641 42.3672 461.297 43.6016V44H454.453ZM448.852 39.2891C449.852 39.2891 450.773 39.0703 451.617 38.6328C452.461 38.1797 453.086 37.5781 453.492 36.8281V32.4688H450.961C447.57 32.4688 445.766 33.6406 445.547 35.9844L445.523 36.3828C445.523 37.2266 445.82 37.9219 446.414 38.4688C447.008 39.0156 447.82 39.2891 448.852 39.2891ZM471.727 18.6406L471.938 21.5703C473.75 19.3047 476.18 18.1719 479.227 18.1719C481.914 18.1719 483.914 18.9609 485.227 20.5391C486.539 22.1172 487.211 24.4766 487.242 27.6172V44H480.469V27.7812C480.469 26.3438 480.156 25.3047 479.531 24.6641C478.906 24.0078 477.867 23.6797 476.414 23.6797C474.508 23.6797 473.078 24.4922 472.125 26.1172V44H465.352V18.6406H471.727ZM501.867 34.4141L506.555 18.6406H513.82L503.625 47.9375L503.062 49.2734C501.547 52.5859 499.047 54.2422 495.562 54.2422C494.578 54.2422 493.578 54.0938 492.562 53.7969V48.6641L493.594 48.6875C494.875 48.6875 495.828 48.4922 496.453 48.1016C497.094 47.7109 497.594 47.0625 497.953 46.1562L498.75 44.0703L489.867 18.6406H497.156L501.867 34.4141Z" fill="white"/>
<path d="M22.752 75.6779V72.8459H13.512V69.7739H21.024V66.9419H13.512V63.3659H10.464V66.9419H3.168V69.7739H10.464V72.8459H1.368V75.6779H9.144C7.032 78.3419 3.768 80.8859 0.576 82.2539C1.248 82.8539 2.184 84.0059 2.664 84.7259C5.472 83.2619 8.28 80.9339 10.464 78.2939V85.7819H13.512V78.1499C15.696 80.8859 18.48 83.2859 21.312 84.7499C21.792 84.0059 22.704 82.8539 23.376 82.2779C20.184 80.8859 16.92 78.3419 14.832 75.6779H22.752ZM34.488 68.6939V73.7579H30.336L32.616 72.8699C32.304 71.6939 31.416 69.9899 30.576 68.6939H34.488ZM41.568 68.6939C41.088 70.0859 40.224 71.8859 39.528 73.0619L41.544 73.7579H37.512V68.6939H41.568ZM46.728 76.4939V73.7579H42.072C42.84 72.6779 43.752 71.0699 44.592 69.5099L41.832 68.6939H45.816V65.9579H37.512V63.3419H34.488V65.9579H26.4V68.6939H30.48L28.008 69.6299C28.776 70.9259 29.544 72.6059 29.808 73.7579H25.272V76.4939H32.808C30.72 78.9659 27.624 81.2459 24.6 82.4939C25.272 83.0699 26.16 84.1979 26.616 84.8939C29.496 83.4539 32.304 81.1019 34.488 78.4139V85.7339H37.512V78.3659C39.672 81.1019 42.48 83.5019 45.36 84.9419C45.792 84.2459 46.704 83.1179 47.352 82.5419C44.352 81.2939 41.28 78.9899 39.216 76.4939H46.728ZM70.248 75.2219C70.248 69.9899 66.504 65.8619 60.552 65.8619C54.336 65.8619 49.536 70.5899 49.536 76.1339C49.536 80.1899 51.744 83.1179 54.408 83.1179C57.024 83.1179 59.088 80.1419 60.528 75.2939C61.224 73.0379 61.632 70.8299 61.968 68.7899C65.208 69.3419 67.008 71.8139 67.008 75.1259C67.008 78.6299 64.608 80.8379 61.536 81.5579C60.888 81.7019 60.216 81.8459 59.304 81.9419L61.104 84.7979C67.152 83.8619 70.248 80.2859 70.248 75.2219ZM52.608 75.8219C52.608 73.1819 54.744 69.6779 58.704 68.8619C58.44 70.8539 57.984 72.8939 57.432 74.6699C56.448 77.9099 55.512 79.4219 54.504 79.4219C53.568 79.4219 52.608 78.2459 52.608 75.8219ZM78.72 68.4779H89.112V69.5099H78.72V68.4779ZM78.72 65.8139H89.112V66.8219H78.72V65.8139ZM94.512 72.2459H85.416V71.2859H91.992V64.0619H75.984V71.2859H82.512V72.2459H73.344V74.4779H94.512V72.2459ZM78.48 80.7899C77.184 81.8459 74.88 82.8299 72.768 83.4539C73.368 83.9099 74.376 84.9179 74.856 85.4459C76.92 84.6299 79.488 83.2379 81.096 81.8459L78.48 80.7899ZM79.296 77.2379H88.704V78.7739H79.296V77.2379ZM91.584 80.7419V75.2459H76.56V80.7419H82.632V83.1899C82.632 83.4539 82.512 83.5259 82.176 83.5499C81.864 83.5739 80.568 83.5739 79.584 83.5259C79.92 84.1499 80.256 85.0139 80.4 85.7099C82.08 85.7099 83.304 85.7099 84.264 85.3979C85.2 85.0859 85.464 84.5579 85.464 83.3099V80.7419H91.584ZM86.544 82.3259C88.56 83.1419 91.224 84.5099 92.496 85.4219L94.56 83.7419C93.096 82.7819 90.384 81.5579 88.44 80.8139L86.544 82.3259ZM108.888 67.4219C108.48 68.1179 108.024 68.8379 107.568 69.4379H102.384C102.984 68.7899 103.56 68.0939 104.088 67.4219H108.888ZM114.24 75.1499H109.608V72.0059H114.24V75.1499ZM102.504 72.0059H106.776V75.1499H102.504V72.0059ZM105.504 82.8779C102.912 82.8779 102.504 82.6379 102.504 81.1019V77.6939H114.24V78.6539H117.168V69.4379H110.904C111.648 68.3579 112.368 67.1579 112.92 66.0779L111 64.8059L110.448 64.9739H105.792C106.056 64.5899 106.272 64.2059 106.512 63.8219L103.416 63.2219C102.12 65.7179 99.768 68.5739 96.528 70.7579C97.2 71.2139 98.112 72.1979 98.592 72.8699C98.952 72.6059 99.288 72.3419 99.624 72.0539V81.1259C99.624 84.6539 100.968 85.5419 105.528 85.5419H113.688C117.624 85.5419 118.656 84.4619 119.16 80.7899C118.344 80.6219 117.096 80.1899 116.376 79.7579C116.064 82.3979 115.68 82.8779 113.472 82.8779H105.504ZM130.752 66.8939V69.9659C133.776 70.2539 138.12 70.2299 141.072 69.9659V66.8699C138.48 67.1819 133.704 67.3019 130.752 66.8939ZM132.672 77.1419L129.912 76.8779C129.648 78.1019 129.504 79.0619 129.504 79.9979C129.504 82.4699 131.496 83.9339 135.624 83.9339C138.336 83.9339 140.256 83.7659 141.816 83.4779L141.768 80.2379C139.656 80.6699 137.88 80.8619 135.744 80.8619C133.296 80.8619 132.384 80.2139 132.384 79.1579C132.384 78.5099 132.48 77.9339 132.672 77.1419ZM127.056 65.2859L123.696 64.9979C123.672 65.7659 123.528 66.6779 123.456 67.3499C123.192 69.1979 122.448 73.2539 122.448 76.8539C122.448 80.1179 122.904 83.0459 123.384 84.7019L126.168 84.5099C126.144 84.1739 126.12 83.7899 126.12 83.5259C126.12 83.2859 126.168 82.7579 126.24 82.3979C126.504 81.1259 127.296 78.5099 127.968 76.5179L126.48 75.3419C126.144 76.1339 125.76 76.9739 125.4 77.7899C125.328 77.3099 125.304 76.6859 125.304 76.2299C125.304 73.8299 126.144 69.0299 126.456 67.4219C126.552 66.9899 126.864 65.7899 127.056 65.2859ZM151.08 67.6619C150.84 68.2859 150.528 68.9099 150.264 69.4139H148.464C148.752 68.8379 149.04 68.2619 149.28 67.6619H151.08ZM153.12 73.1579H151.752V71.6699H153.12V73.1579ZM153.12 76.8299H151.752V75.2699H153.12V76.8299ZM148.44 75.2699H149.784V76.8299H148.44V75.2699ZM148.44 71.6699H149.784V73.1579H148.44V71.6699ZM146.16 79.0859H155.52V69.4139H152.808C153.36 68.4539 153.912 67.4219 154.344 66.4379L152.76 65.3819L152.304 65.5259H150.072C150.288 64.9019 150.456 64.2779 150.624 63.6539L148.056 63.3419C147.552 65.6219 146.472 68.3819 144.672 70.4939C145.104 70.7339 145.704 71.2379 146.16 71.6939V79.0859ZM146.52 85.7819C147.648 84.4859 148.032 82.3499 148.272 80.2619L146.304 79.7819C146.112 81.6779 145.632 83.5739 144.672 84.7259L146.52 85.7819ZM148.608 80.0219C148.824 81.5579 148.92 83.5019 148.824 84.7739L150.768 84.5579C150.816 83.2619 150.696 81.3179 150.432 79.8059L148.608 80.0219ZM150.96 80.0939C151.44 81.5339 151.848 83.4059 151.92 84.6299L153.768 84.2219C153.648 82.9979 153.24 81.1499 152.688 79.7579L150.96 80.0939ZM153.336 79.9979C154.032 81.4139 154.752 83.2859 154.944 84.5339L156.792 83.8139C156.504 82.5899 155.808 80.7899 155.016 79.3979L153.336 79.9979ZM167.256 77.4539H162.768V75.1979H166.344V72.7499H162.768V70.6619H166.704V68.1659H164.592C165.216 67.0859 165.936 65.5019 166.632 63.9659L163.728 63.3419C163.392 64.6619 162.696 66.5339 162.12 67.7579L163.728 68.1659H159.144L160.464 67.6619C160.2 66.4619 159.504 64.7099 158.688 63.3659L156.36 64.1819C157.008 65.4059 157.632 66.9899 157.896 68.1659H156.048V70.6619H159.984V72.7499H156.552V75.1979H159.984V77.4539H155.904V79.9499H159.984V85.7099H162.768V79.9499H167.256V77.4539ZM168.912 72.8699L170.328 75.9179C171.36 75.4619 172.872 74.6459 174.6 73.7819C174.816 74.2619 175.032 74.7659 175.248 75.2699C176.472 78.1739 177.72 82.2299 178.464 85.2539L181.752 84.3899C180.96 81.7019 179.112 76.5659 177.984 73.9499C177.768 73.4699 177.552 72.9659 177.312 72.4619C179.88 71.2859 182.496 70.3019 184.368 70.3019C186.168 70.3019 187.248 71.2859 187.248 72.5099C187.248 74.2379 185.928 75.2219 184.128 75.2219C183.072 75.2219 181.872 74.8619 180.792 74.4059L180.72 77.4299C181.632 77.7659 183.12 78.1019 184.416 78.1019C188.088 78.1019 190.392 75.9659 190.392 72.6059C190.392 69.8219 188.16 67.5659 184.44 67.5659C183.36 67.5659 182.184 67.7819 180.984 68.1419L182.88 66.7499C182.064 65.8859 180.264 64.3259 179.4 63.6779L177.192 65.2139C178.104 65.9099 179.64 67.3979 180.504 68.2859C179.112 68.7419 177.648 69.3419 176.184 69.9899C175.8 69.1739 175.416 68.4059 175.056 67.7099C174.792 67.2539 174.312 66.2699 174.096 65.8379L170.976 67.0379C171.456 67.6619 172.056 68.5499 172.392 69.1499C172.752 69.7739 173.112 70.4699 173.448 71.1899C172.728 71.5019 171.984 71.8139 171.288 72.1019C170.904 72.2699 169.848 72.6299 168.912 72.8699ZM203.088 64.7099L199.512 64.3499C199.536 65.8619 199.344 67.6139 199.008 69.4379C197.784 69.5339 196.656 69.6059 195.912 69.6299C195.024 69.6539 194.208 69.7019 193.344 69.6299L193.632 72.8939C194.352 72.7739 195.624 72.6059 196.296 72.4859C196.752 72.4379 197.496 72.3419 198.36 72.2459C197.496 75.5339 195.84 80.3819 193.512 83.5259L196.632 84.7739C198.84 81.2459 200.616 75.5579 201.528 71.9099C202.2 71.8619 202.8 71.8139 203.184 71.8139C204.696 71.8139 205.512 72.0779 205.512 73.9979C205.512 76.3739 205.2 79.2779 204.552 80.6459C204.168 81.4379 203.544 81.6779 202.752 81.6779C202.104 81.6779 200.736 81.4379 199.8 81.1739L200.328 84.3419C201.144 84.5099 202.272 84.6779 203.208 84.6779C205.008 84.6779 206.352 84.1499 207.144 82.4699C208.176 80.3819 208.512 76.4939 208.512 73.6619C208.512 70.2059 206.712 69.0779 204.168 69.0779C203.664 69.0779 202.944 69.1259 202.152 69.1739C202.32 68.3099 202.488 67.4219 202.656 66.7019C202.776 66.1019 202.944 65.3339 203.088 64.7099ZM211.344 66.9659L208.488 68.1899C210.192 70.3019 211.896 74.6459 212.52 77.3099L215.568 75.8939C214.848 73.6139 212.832 69.0299 211.344 66.9659ZM227.328 64.3499L224.016 64.0139C223.968 65.2619 223.704 66.7019 223.368 68.0219C222.624 68.0939 221.904 68.1179 221.184 68.1179C220.296 68.1179 219.024 68.0699 217.992 67.9499L218.208 70.7339C219.24 70.8059 220.224 70.8299 221.208 70.8299C221.616 70.8299 222.024 70.8299 222.456 70.8059C221.4 73.3979 219.456 76.9259 217.56 79.2779L220.464 80.7659C222.408 78.0539 224.448 73.8539 225.6 70.4939C227.208 70.2539 228.696 69.9419 229.8 69.6539L229.704 66.8699C228.768 67.1579 227.64 67.4219 226.464 67.6379C226.824 66.3419 227.136 65.1179 227.328 64.3499ZM226.08 80.9579C226.08 80.1179 226.968 79.4939 228.36 79.4939C229.032 79.4939 229.68 79.5899 230.304 79.7339C230.304 79.9259 230.304 80.0699 230.304 80.2139C230.304 81.5339 229.8 82.4459 228.144 82.4459C226.824 82.4459 226.08 81.8459 226.08 80.9579ZM232.944 71.8139H229.944C229.992 73.2779 230.112 75.4139 230.208 77.1899C229.656 77.1419 229.128 77.0939 228.552 77.0939C225.216 77.0939 223.248 78.8939 223.248 81.2459C223.248 83.8859 225.6 85.2059 228.576 85.2059C231.984 85.2059 233.208 83.4779 233.208 81.2459C233.208 81.1739 233.208 81.0779 233.208 81.0059C234.528 81.7979 235.608 82.8059 236.448 83.5739L238.056 81.0059C236.832 79.9019 235.152 78.7019 233.088 77.9339C233.04 76.7339 232.968 75.5819 232.944 74.8859C232.92 73.8299 232.872 72.8219 232.944 71.8139ZM237.072 73.0859L238.776 70.5659C237.552 69.6779 234.576 68.0459 232.848 67.3019L231.312 69.6779C232.944 70.4219 235.68 71.9819 237.072 73.0859ZM251.232 67.5899C250.848 68.9819 250.08 70.8779 249.408 72.1499L251.592 72.7979C252.264 71.7419 253.104 70.1099 253.896 68.5739C254.64 69.1499 255.432 69.9899 255.912 70.6619C258.288 69.2459 260.76 67.1819 262.464 64.8779L259.632 63.7019C258.384 65.5259 255.984 67.3499 253.968 68.4059L254.04 68.2859L251.232 67.5899ZM260.088 70.2779C258.744 72.1739 256.104 74.0699 253.968 75.1739C254.736 75.7259 255.6 76.6379 256.08 77.2859C258.504 75.8939 261.096 73.7819 262.896 71.4539L260.088 70.2779ZM245.568 68.2619C246.216 69.3659 246.864 70.8779 247.056 71.9099L249.408 71.0699C249.144 70.1099 248.472 68.6459 247.776 67.5659L245.568 68.2619ZM252.264 63.5579C249.336 64.3499 244.8 64.9739 240.792 65.3339C241.08 65.9579 241.464 66.9899 241.536 67.6859C245.616 67.3979 250.416 66.8459 253.968 65.9579L252.264 63.5579ZM245.52 71.8139C245.136 70.7579 244.296 69.2939 243.36 68.2139L241.272 69.1259C242.16 70.2779 242.976 71.8379 243.288 72.9179L245.52 71.8139ZM253.488 76.8539V74.2859H249.048V72.1739H246.288V74.2859H241.296V76.8539H245.4C244.104 78.8219 242.208 80.7419 240.456 81.8219C241.056 82.4699 241.8 83.5979 242.16 84.3659C243.552 83.2859 245.04 81.7499 246.288 80.0939V85.6859H249.048V79.0859C250.2 80.1899 251.232 81.4139 251.784 82.3739L253.68 80.4539C252.984 79.3979 251.664 78.0059 250.248 76.8539H253.488ZM260.64 76.9019C259.008 79.7099 255.816 81.9899 252.624 83.2859C253.368 83.9339 254.232 84.9899 254.688 85.7579C258.24 84.0299 261.432 81.4379 263.496 78.0539L260.64 76.9019ZM272.664 64.3979L269.376 64.2539C269.376 64.9019 269.304 65.8619 269.184 66.7739C268.848 69.2459 268.512 72.2219 268.512 74.4539C268.512 76.0619 268.68 77.5259 268.824 78.4619L271.776 78.2699C271.632 77.1419 271.608 76.3739 271.656 75.7259C271.776 72.5579 274.248 68.3099 277.08 68.3099C279.096 68.3099 280.344 70.3739 280.344 74.0699C280.344 79.8779 276.576 81.6299 271.248 82.4459L273.072 85.2299C279.432 84.0779 283.584 80.8379 283.584 74.0459C283.584 68.7659 280.992 65.5019 277.656 65.5019C274.944 65.5019 272.856 67.5179 271.704 69.3899C271.848 68.0459 272.328 65.5739 272.664 64.3979ZM299.664 64.4219L296.496 64.1579C296.448 65.0219 296.28 65.9579 296.016 66.9179C295.632 66.9179 295.224 66.9179 294.864 66.9179C293.64 66.9179 291.864 66.8219 290.64 66.6299V69.4379C291.96 69.5339 293.712 69.5819 294.696 69.5819C294.792 69.5819 294.888 69.5819 295.008 69.5819C293.928 71.7419 292.224 73.8779 289.704 76.2059L292.272 78.1259C293.088 77.0699 293.784 76.2059 294.504 75.4859C295.416 74.5979 296.904 73.8299 298.248 73.8299C298.92 73.8299 299.568 74.0459 299.928 74.6459C297.192 76.0619 294.312 77.9819 294.312 81.0539C294.312 84.1499 297.096 85.0619 300.864 85.0619C303.12 85.0619 306.072 84.8699 307.656 84.6539L307.752 81.5579C305.64 81.9659 302.976 82.2299 300.936 82.2299C298.584 82.2299 297.456 81.8699 297.456 80.5499C297.456 79.3499 298.416 78.4139 300.216 77.3819C300.192 78.4379 300.168 79.5899 300.096 80.3099H302.976C302.952 79.2059 302.904 77.4299 302.88 76.0859C304.344 75.4139 305.712 74.8859 306.792 74.4539C307.608 74.1419 308.88 73.6619 309.648 73.4459L308.448 70.6619C307.56 71.1179 306.72 71.5019 305.784 71.9099C304.8 72.3419 303.792 72.7499 302.544 73.3259C302.016 72.1019 300.816 71.4779 299.352 71.4779C298.56 71.4779 297.264 71.6699 296.64 71.9579C297.12 71.2619 297.6 70.3979 298.008 69.5099C300.6 69.4379 303.552 69.2459 305.832 68.9099L305.856 66.1259C303.744 66.4859 301.344 66.7019 299.064 66.8219C299.376 65.8139 299.544 65.0219 299.664 64.4219Z" fill="white"/>
</svg>
